HIERARCHY
ROOT Hips
{
	OFFSET	0.00	0.00	0.00
	CHANNELS 6 Xposition Yposition Zposition Zrotation Xrotation Yrotation
	JOINT LeftUpLeg
	{
		OFFSET	 0.126116	-0.065224	 0.014019
		CHANNELS 3 Zrotation Xrotation Yrotation
		JOINT LeftLeg
		{
			OFFSET	 0.000000	 0.569914	 0.000000
			CHANNELS 3 Zrotation Xrotation Yrotation
			JOINT LeftFoot
			{
				OFFSET	 0.000000	 0.544423	 0.000000
				CHANNELS 3 Zrotation Xrotation Yrotation
				JOINT LeftToeBase
				{
					OFFSET	 0.000000	 0.207117	 0.000000
					CHANNELS 3 Zrotation Xrotation Yrotation
					End Site
					{
						OFFSET	 0.000000	 0.207117	 0.000000
					}
				}
			}
		}
	}
	JOINT RightUpLeg
	{
		OFFSET	-0.124023	-0.065224	 0.008373
		CHANNELS 3 Zrotation Xrotation Yrotation
		JOINT RightLeg
		{
			OFFSET	 0.000000	 0.570047	 0.000000
			CHANNELS 3 Zrotation Xrotation Yrotation
			JOINT RightFoot
			{
				OFFSET	 0.000000	 0.544354	 0.000000
				CHANNELS 3 Zrotation Xrotation Yrotation
				JOINT RightToeBase
				{
					OFFSET	 0.000000	 0.207540	 0.000000
					CHANNELS 3 Zrotation Xrotation Yrotation
					End Site
					{
						OFFSET	 0.000000	 0.207540	 0.000000
					}
				}
			}
		}
	}
	JOINT Spine
	{
		OFFSET	 0.000184	 0.117403	 0.007763
		CHANNELS 3 Zrotation Xrotation Yrotation
		JOINT Spine1
		{
			OFFSET	 0.000000	 0.137269	 0.000000
			CHANNELS 3 Zrotation Xrotation Yrotation
			JOINT Spine2
			{
				OFFSET	 0.000000	 0.156879	 0.000000
				CHANNELS 3 Zrotation Xrotation Yrotation
				JOINT LeftShoulder
				{
					OFFSET	 0.080501	 0.160143	 0.002496
					CHANNELS 3 Zrotation Xrotation Yrotation
					JOINT LeftArm
					{
						OFFSET	 0.000000	 0.164363	 0.000000
						CHANNELS 3 Zrotation Xrotation Yrotation
						JOINT LeftForeArm
						{
							OFFSET	 0.000000	 0.364576	 0.000000
							CHANNELS 3 Zrotation Xrotation Yrotation
							JOINT LeftHand
							{
								OFFSET	 0.000000	 0.360812	 0.000000
								CHANNELS 3 Zrotation Xrotation Yrotation
								JOINT LeftHandIndex1
								{
									OFFSET	 0.000000	 0.086006	 0.000000
									CHANNELS 3 Zrotation Xrotation Yrotation
									JOINT LeftHandIndex2
									{
										OFFSET	 0.000000	 0.047237	 0.000000
										CHANNELS 3 Zrotation Xrotation Yrotation
										JOINT LeftHandIndex3
										{
											OFFSET	-0.004284	 0.038165	 0.000551
											CHANNELS 3 Zrotation Xrotation Yrotation
											End Site
											{
												OFFSET	-0.004284	 0.038165	 0.000551
											}
										}
									}
								}
							}
						}
					}
				}
				JOINT Neck
				{
					OFFSET	 0.000000	 0.176489	 0.000000
					CHANNELS 3 Zrotation Xrotation Yrotation
					JOINT Head
					{
						OFFSET	 0.000000	 0.077941	 0.001747
						CHANNELS 3 Zrotation Xrotation Yrotation
						End Site
						{
							OFFSET	 0.000000	 0.077941	 0.001747
						}
					}
				}
				JOINT RightShoulder
				{
					OFFSET	-0.080363	 0.159706	-0.000306
					CHANNELS 3 Zrotation Xrotation Yrotation
					JOINT RightArm
					{
						OFFSET	 0.000000	 0.164196	 0.000000
						CHANNELS 3 Zrotation Xrotation Yrotation
						JOINT RightForeArm
						{
							OFFSET	 0.000000	 0.365611	 0.000000
							CHANNELS 3 Zrotation Xrotation Yrotation
							JOINT RightHand
							{
								OFFSET	 0.000000	 0.360648	 0.000000
								CHANNELS 3 Zrotation Xrotation Yrotation
								JOINT RightHandIndex1
								{
									OFFSET	 0.000000	 0.069977	 0.000000
									CHANNELS 3 Zrotation Xrotation Yrotation
									JOINT RightHandIndex2
									{
										OFFSET	 0.000000	 0.052305	 0.000000
										CHANNELS 3 Zrotation Xrotation Yrotation
										JOINT RightHandIndex3
										{
											OFFSET	 0.009002	 0.042196	 0.000782
											CHANNELS 3 Zrotation Xrotation Yrotation
											End Site
											{
												OFFSET	 0.009002	 0.042196	 0.000782
											}
										}
									}
								}
							}
						}
					}
				}
			}
		}
	}
}
MOTION
Frames:    6
Frame Time: 0.03333334
 0.455449	 1.099355	 0.614897	-7.192287	-30.101960	-177.551300	 146.642600	 68.963930	 20.443230	 22.582060	-55.324200	 27.677270	 27.943340	 72.791970	-28.846600	 1.292262	 28.425850	-2.713146	 163.927500	 75.571010	 10.361180	-19.990630	-60.654060	-28.964620	-42.831830	 68.094630	 45.630730	-1.288183	 28.361890	 2.710176	 1.311701	 11.880830	 6.966022	 3.154587	 15.149970	 0.956097	-4.420957	 1.145450	-15.459060	-121.350400	 27.786220	 104.402800	 29.768480	 7.229916	 7.851552	 47.072480	-3.409982	-38.797280	 40.319930	-12.049240	 19.102570	-6.580301	 5.266122	 0.000000	 0.000000	 0.000000	 0.000000	 0.000000	 0.000000	 0.000000	 2.144483	 17.113290	-1.382072	-1.037140	-29.222350	-3.921678	 124.530900	 26.820770	-105.293300	-45.142680	 4.861745	 0.511303	-47.774120	 1.012126	-3.374147	 3.109461	-74.504600	-24.364300	 15.208500	 5.323790	 0.000000	 0.000000	 0.000000	 0.000000	 0.000000	 0.000000	 0.000000
 0.448791	 1.151506	 0.603776	-5.133912	-25.675470	-176.348600	 158.272700	 59.725010	 11.077560	 16.849010	-47.493610	 23.157780	 25.494440	 70.070820	-26.129430	 1.292262	 28.425850	-2.713146	 169.418200	 64.800140	 7.243358	-14.400810	-52.301890	-24.508470	-38.820610	 65.993630	 41.483240	-1.288183	 28.361890	 2.710176	 1.369107	 10.278590	 7.066478	 3.229366	 15.533840	 1.615338	-3.225083	-2.923817	-15.374180	-112.977500	 21.937300	 99.310520	 32.146360	 21.089360	 4.776558	 50.863450	-3.611629	-35.660990	 39.739270	-7.844909	 17.635720	-6.580301	 5.266122	 0.000000	 0.000000	 0.000000	 0.000000	 0.000000	 0.000000	 0.000000	 0.153027	-1.058305	-0.975570	-0.079611	-12.941760	-4.031424	 119.148300	 22.742200	-101.608400	-44.884770	 12.826450	 0.880696	-55.678220	 1.128868	-4.673014	-1.757595	-71.308880	-27.937860	 15.208500	 5.323790	 0.000000	 0.000000	 0.000000	 0.000000	 0.000000	 0.000000	 0.000000
 0.446196	 1.190396	 0.584739	-2.958771	-21.157890	-175.099100	 164.925900	 50.553360	 7.325419	 13.296330	-40.883570	 20.666590	 24.619050	 67.971000	-25.080510	 1.292262	 28.425850	-2.713146	 171.903000	 54.506570	 7.304976	-11.013200	-44.824840	-18.643840	-30.936860	 66.149000	 32.103630	-1.288183	 28.361890	 2.710176	 1.278295	 8.258487	 7.252385	 2.854559	 14.865310	 2.384458	-1.785804	-6.629820	-14.935550	-116.461900	 18.570970	 98.611290	 29.380460	 23.988180	 11.993870	 54.520400	-3.791241	-31.209650	 40.189620	-5.871152	 17.813770	-6.580301	 5.266122	 0.000000	 0.000000	 0.000000	 0.000000	 0.000000	 0.000000	 0.000000	-1.748150	-2.548573	-1.070363	 0.764205	-10.975950	-4.222538	 120.500100	 18.592260	-99.970990	-40.012790	 17.979650	-0.949267	-63.863250	 1.227054	-7.169457	 0.308605	-65.821820	-26.364300	 15.208500	 5.323790	 0.000000	 0.000000	 0.000000	 0.000000	 0.000000	 0.000000	 0.000000
 0.443554	 1.233744	 0.556638	-1.099690	-16.485940	-174.246100	 170.591400	 39.281390	 4.775925	 9.323714	-31.376960	 17.432120	 21.285230	 65.135520	-21.112840	 1.292262	 28.425850	-2.713146	 174.414100	 42.265740	 7.266202	-7.423209	-33.908110	-12.233510	-20.467730	 64.751050	 19.720590	-1.288183	 28.361890	 2.710176	 1.247806	 5.531889	 7.126582	 1.062932	 9.882456	 3.074633	 0.120204	-7.561352	-14.176770	-118.815700	 15.094900	 97.444010	 26.493720	 25.684330	 19.486230	 58.215390	-3.956914	-26.759410	 36.142070	-4.087100	 16.940030	-6.580301	 5.266122	 0.000000	 0.000000	 0.000000	 0.000000	 0.000000	 0.000000	 0.000000	-1.747940	-1.582660	-1.256389	 0.501715	-10.303460	-4.047615	 123.891100	 14.762260	-98.748920	-35.153770	 19.979300	-3.920961	-71.253640	 1.273443	-9.562037	 8.093766	-55.839940	-19.449930	 15.208500	 5.323790	 0.000000	 0.000000	 0.000000	 0.000000	 0.000000	 0.000000	 0.000000
 0.444910	 1.256962	 0.532034	-0.747732	-11.891020	-174.157600	 173.368400	 29.902430	 3.258549	 7.254632	-25.423790	 14.341240	 16.836930	 64.259850	-15.854730	 1.292262	 28.425850	-2.713146	 175.813100	 32.848080	 6.984181	-5.666502	-27.189870	-7.608472	-12.774830	 63.918410	 10.372650	-1.288183	 28.361890	 2.710176	 1.024898	 4.153546	 6.849213	 0.161776	 7.406232	 3.048143	 0.655460	-7.503783	-13.314470	-119.492700	 12.214010	 96.174410	 25.969230	 26.293900	 23.345090	 60.663630	-4.057718	-23.081100	 32.708600	-2.399352	 15.397910	-6.580301	 5.266122	 0.000000	 0.000000	 0.000000	 0.000000	 0.000000	 0.000000	 0.000000	-0.825337	 1.246155	-1.539546	 0.025502	-10.541280	-3.716552	 124.565200	 11.982840	-97.403850	-32.764300	 21.078260	-3.564920	-76.561910	 1.329302	-11.347710	 12.379550	-45.973550	-14.471310	 15.208500	 5.323790	 0.000000	 0.000000	 0.000000	 0.000000	 0.000000	 0.000000	 0.000000
 0.446726	 1.271595	 0.507947	-0.294823	-10.617470	-174.484600	 175.262800	 25.228790	 1.997875	 5.956476	-21.336880	 11.650660	 12.635730	 63.999320	-10.885970	 1.292262	 28.425850	-2.713146	 176.648600	 27.479900	 6.873168	-4.566649	-22.500980	-4.024588	-6.697711	 63.404920	 3.125363	-1.288183	 28.361890	 2.710176	 0.718568	 3.240879	 6.329641	-0.594413	 5.897881	 2.849006	 0.942258	-7.618045	-12.229370	-119.678300	 9.685575	 94.983580	 26.292750	 26.475770	 26.543390	 62.781500	-4.138947	-19.825370	 31.401140	-1.344642	 13.729720	-6.580301	 5.266122	 0.000000	 0.000000	 0.000000	 0.000000	 0.000000	 0.000000	 0.000000	-0.026628	 3.866439	-1.842866	-0.009161	-9.947988	-3.372627	 124.662400	 9.640904	-96.171810	-33.117390	 24.141620	-3.469412	-77.982410	 1.336782	-13.117950	 12.882260	-38.829010	-12.399830	 15.208500	 5.323790	 0.000000	 0.000000	 0.000000	 0.000000	 0.000000	 0.000000	 0.000000
